<?xml version="1.0" standalone="no"?>
<!DOCTYPE svg PUBLIC "-//W3C//DTD SVG 20010904//EN"
 "http://www.w3.org/TR/2001/REC-SVG-20010904/DTD/svg10.dtd">
<svg version="1.0" xmlns="http://www.w3.org/2000/svg"
 width="300.000000pt" height="300.000000pt" viewBox="0 0 300.000000 300.000000"
 preserveAspectRatio="xMidYMid meet">
<metadata>
Created by potrace 1.11, written by Peter Selinger 2001-2013
</metadata>
<g transform="translate(0.000000,300.000000) scale(0.100000,-0.100000)"
fill="#000000" stroke="none">
<path d="M1302 2967 c-110 -46 -158 -86 -141 -119 17 -32 10 -38 -50 -38 -33
0 -91 -7 -129 -15 -38 -8 -97 -17 -130 -21 -51 -5 -63 -3 -68 10 -3 8 -29 30
-57 47 -44 27 -61 31 -134 34 -46 2 -91 6 -101 9 -70 21 -100 17 -202 -26 -60
-25 -120 -59 -146 -81 l-43 -38 5 -92 c5 -79 2 -103 -20 -174 -29 -96 -28
-168 5 -237 20 -44 21 -44 52 -33 17 6 43 16 56 23 14 7 27 12 29 10 1 -2 -15
-32 -37 -66 -23 -35 -41 -66 -41 -70 0 -12 40 -89 49 -95 5 -3 12 -1 16 5 12
19 25 10 16 -12 -18 -50 -6 -96 36 -141 23 -24 44 -54 48 -66 3 -11 12 -21 20
-21 7 0 16 -13 20 -29 8 -36 42 -69 81 -77 24 -5 36 0 60 23 76 75 114 143
151 268 16 56 22 68 19 40 -2 -22 -15 -76 -29 -120 -40 -123 -98 -333 -113
-405 -2 -14 -16 -74 -29 -135 -13 -60 -26 -123 -28 -140 -3 -16 -8 -41 -11
-55 -3 -14 -7 -38 -10 -55 -2 -16 -9 -59 -15 -95 -6 -36 -13 -83 -16 -105 -4
-22 -8 -51 -11 -65 -2 -14 -6 -49 -10 -78 -3 -29 -7 -63 -10 -75 -4 -21 -9
-58 -19 -157 -3 -25 -8 -70 -11 -100 -9 -80 -13 -123 -20 -233 -7 -121 3 -154
52 -163 93 -17 250 39 275 99 20 47 15 152 -11 217 -28 70 -34 175 -14 238 8
26 17 58 20 72 9 48 27 96 100 271 79 189 103 271 107 374 2 36 6 68 10 71 3
4 26 -5 51 -20 24 -14 47 -26 51 -26 3 0 -10 21 -30 46 -19 26 -35 52 -35 57
0 6 13 -10 30 -35 16 -25 58 -75 92 -113 l62 -67 2 -157 c1 -155 7 -201 24
-201 28 0 63 24 75 52 11 26 14 29 15 11 0 -22 -52 -73 -75 -73 -8 0 -37 9
-65 20 l-50 20 6 -40 c5 -30 2 -47 -15 -73 -11 -19 -21 -38 -21 -42 0 -10 129
3 205 20 l20 5 -20 -10 c-11 -5 -33 -14 -48 -20 l-28 -10 6 -122 c3 -68 11
-143 16 -168 6 -25 12 -54 15 -65 2 -11 10 -47 19 -80 12 -52 14 -146 3 -196
-10 -47 259 -55 337 -10 37 21 37 54 0 108 -38 56 -78 188 -91 297 -10 84 -4
310 11 461 2 17 4 46 4 65 1 34 2 33 42 -39 22 -40 62 -106 89 -147 69 -102
79 -126 84 -185 4 -62 -14 -162 -37 -206 -9 -17 -32 -40 -50 -52 -80 -49 -76
-167 5 -178 13 -1 59 -12 102 -24 142 -38 224 -27 213 28 -5 26 3 34 57 52 59
20 86 48 86 91 0 47 -16 92 -53 153 -56 91 -67 196 -33 296 8 22 35 74 60 114
69 114 139 259 200 417 94 241 83 222 130 214 23 -4 53 -8 67 -9 40 -4 167 40
213 73 44 32 120 72 134 72 15 0 122 72 122 82 0 5 -9 4 -20 -2 -32 -17 -22 3
15 30 36 26 84 100 65 100 -6 0 -27 -15 -46 -32 -60 -55 -72 -54 -21 0 57 62
60 74 10 35 -58 -45 -70 -50 -45 -19 31 40 28 51 -8 26 -16 -11 -45 -49 -65
-83 -26 -45 -34 -54 -29 -32 3 17 12 42 19 57 17 36 3 44 -29 16 -23 -21 -56
-99 -56 -133 0 -8 -17 -32 -39 -54 -29 -29 -56 -45 -107 -60 -76 -24 -160 -29
-177 -12 -8 8 -12 54 -12 134 0 116 -2 125 -31 188 -36 76 -165 275 -214 332
-19 21 -47 44 -64 52 -40 18 -53 30 -100 88 -37 45 -81 77 -106 77 -7 0 -8
-33 -4 -105 4 -67 3 -105 -3 -105 -9 0 -16 64 -15 130 4 179 -1 235 -21 258
-9 10 -17 29 -17 41 0 13 -8 35 -19 49 -17 25 -18 46 -6 99 7 28 -54 82 -161
143 -106 60 -150 62 -262 17z m503 -779 c-11 -64 -47 -167 -64 -187 -10 -12
-27 -21 -37 -21 -50 0 -60 -10 -78 -77 -9 -37 -26 -83 -36 -102 -25 -47 -135
-161 -156 -161 -47 0 -104 67 -144 171 -27 72 -10 59 28 -21 42 -89 76 -130
108 -130 33 0 93 59 139 135 32 55 41 78 59 157 5 23 13 29 44 34 42 7 61 19
79 51 13 23 48 162 45 176 -1 4 3 7 8 7 6 0 8 -13 5 -32z m-1049 -408 c0 -19
-2 -39 -6 -45 -10 -15 -14 -52 -14 -135 0 -63 4 -84 27 -130 26 -50 27 -53 6
-35 -12 11 -36 49 -53 85 -27 59 -30 75 -31 166 0 109 11 137 49 132 17 -2 21
-11 22 -38z m484 4 c14 -36 12 -118 -5 -199 -18 -87 -33 -123 -62 -155 -28
-31 -29 -16 -3 46 27 62 32 108 20 169 -6 28 -12 61 -15 74 -6 31 20 91 40 91
8 0 20 -12 25 -26z m-425 -110 c9 -31 14 -58 11 -61 -2 -3 -10 15 -16 38 -6
24 -13 52 -16 62 -3 9 -3 17 0 17 2 0 12 -25 21 -56z m73 -212 c11 -23 16 -40
11 -36 -9 5 -39 69 -39 82 0 10 7 -2 28 -46z m392 -161 c43 -86 85 -190 71
-175 -5 5 -30 56 -56 114 -26 58 -51 109 -56 115 -10 10 -12 25 -4 25 3 0 23
-36 45 -79z m-93 -238 c21 -45 41 -154 25 -138 -3 3 -7 24 -8 48 -2 24 -18 72
-39 112 -19 38 -28 61 -19 50 9 -11 27 -43 41 -72z m134 -254 c-12 -19 -21
-30 -21 -26 0 12 33 67 38 63 1 -2 -6 -19 -17 -37z"/>
</g>
</svg>
